<mxfile host="app.diagrams.net" modified="2021-09-06T12:23:24.279Z" agent="5.0 (Windows NT 10.0; Win64; x64) AppleWebKit/537.36 (KHTML, like Gecko) Chrome/92.0.4515.159 Safari/537.36" etag="XPmn-LlPa4w21zVFjms-" version="15.0.5" type="github">
  <diagram id="69OuJsf0LlZGyANOmkY6" name="Page-1">
    <mxGraphModel dx="1888" dy="1621" grid="1" gridSize="10" guides="1" tooltips="1" connect="1" arrows="1" fold="1" page="1" pageScale="1" pageWidth="850" pageHeight="1100" math="0" shadow="0">
      <root>
        <mxCell id="0" />
        <mxCell id="1" parent="0" />
        <mxCell id="LEkP-3PZfSbXPU-rr5hg-1" value="Address" style="swimlane;fontStyle=1;align=center;verticalAlign=top;childLayout=stackLayout;horizontal=1;startSize=26;horizontalStack=0;resizeParent=1;resizeParentMax=0;resizeLast=0;collapsible=1;marginBottom=0;" parent="1" vertex="1">
          <mxGeometry x="110" y="-120" width="180" height="170" as="geometry">
            <mxRectangle x="220" y="180" width="100" height="26" as="alternateBounds" />
          </mxGeometry>
        </mxCell>
        <mxCell id="LEkP-3PZfSbXPU-rr5hg-2" value="+ street: String&#xa;+ city: String&#xa;+ state: String&#xa;" style="text;strokeColor=none;fillColor=none;align=left;verticalAlign=top;spacingLeft=4;spacingRight=4;overflow=hidden;rotatable=0;points=[[0,0.5],[1,0.5]];portConstraint=eastwest;" parent="LEkP-3PZfSbXPU-rr5hg-1" vertex="1">
          <mxGeometry y="26" width="180" height="64" as="geometry" />
        </mxCell>
        <mxCell id="LEkP-3PZfSbXPU-rr5hg-3" value="" style="line;strokeWidth=1;fillColor=none;align=left;verticalAlign=middle;spacingTop=-1;spacingLeft=3;spacingRight=3;rotatable=0;labelPosition=right;points=[];portConstraint=eastwest;" parent="LEkP-3PZfSbXPU-rr5hg-1" vertex="1">
          <mxGeometry y="90" width="180" height="8" as="geometry" />
        </mxCell>
        <mxCell id="LEkP-3PZfSbXPU-rr5hg-4" value="+ getAddressDetails(): String&#xa;&#xa;+ updateAddressDetails&#xa;(addressDetails:String): void&#xa;" style="text;strokeColor=none;fillColor=none;align=left;verticalAlign=top;spacingLeft=4;spacingRight=4;overflow=hidden;rotatable=0;points=[[0,0.5],[1,0.5]];portConstraint=eastwest;" parent="LEkP-3PZfSbXPU-rr5hg-1" vertex="1">
          <mxGeometry y="98" width="180" height="72" as="geometry" />
        </mxCell>
        <mxCell id="LEkP-3PZfSbXPU-rr5hg-7" value="BusinessPartner" style="swimlane;fontStyle=1;align=center;verticalAlign=top;childLayout=stackLayout;horizontal=1;startSize=26;horizontalStack=0;resizeParent=1;resizeParentMax=0;resizeLast=0;collapsible=1;marginBottom=0;" parent="1" vertex="1">
          <mxGeometry x="380" y="-130" width="160" height="170" as="geometry" />
        </mxCell>
        <mxCell id="LEkP-3PZfSbXPU-rr5hg-8" value="+ id : int&#xa;+ address : Address&#xa;+ contact: Contact" style="text;strokeColor=none;fillColor=none;align=left;verticalAlign=top;spacingLeft=4;spacingRight=4;overflow=hidden;rotatable=0;points=[[0,0.5],[1,0.5]];portConstraint=eastwest;" parent="LEkP-3PZfSbXPU-rr5hg-7" vertex="1">
          <mxGeometry y="26" width="160" height="74" as="geometry" />
        </mxCell>
        <mxCell id="LEkP-3PZfSbXPU-rr5hg-9" value="" style="line;strokeWidth=1;fillColor=none;align=left;verticalAlign=middle;spacingTop=-1;spacingLeft=3;spacingRight=3;rotatable=0;labelPosition=right;points=[];portConstraint=eastwest;" parent="LEkP-3PZfSbXPU-rr5hg-7" vertex="1">
          <mxGeometry y="100" width="160" height="8" as="geometry" />
        </mxCell>
        <mxCell id="LEkP-3PZfSbXPU-rr5hg-10" value="+ getContact(): Contact&#xa;+ getAddress(): Address&#xa;" style="text;strokeColor=none;fillColor=none;align=left;verticalAlign=top;spacingLeft=4;spacingRight=4;overflow=hidden;rotatable=0;points=[[0,0.5],[1,0.5]];portConstraint=eastwest;" parent="LEkP-3PZfSbXPU-rr5hg-7" vertex="1">
          <mxGeometry y="108" width="160" height="62" as="geometry" />
        </mxCell>
        <mxCell id="LEkP-3PZfSbXPU-rr5hg-12" value="" style="endArrow=diamondThin;endFill=1;endSize=24;html=1;" parent="1" edge="1">
          <mxGeometry width="160" relative="1" as="geometry">
            <mxPoint x="290" y="-69.5" as="sourcePoint" />
            <mxPoint x="380" y="-70" as="targetPoint" />
          </mxGeometry>
        </mxCell>
        <mxCell id="LEkP-3PZfSbXPU-rr5hg-13" value="Contact&#xa;" style="swimlane;fontStyle=1;align=center;verticalAlign=top;childLayout=stackLayout;horizontal=1;startSize=26;horizontalStack=0;resizeParent=1;resizeParentMax=0;resizeLast=0;collapsible=1;marginBottom=0;" parent="1" vertex="1">
          <mxGeometry x="660" y="-140" width="170" height="180" as="geometry">
            <mxRectangle x="670" y="20" width="80" height="26" as="alternateBounds" />
          </mxGeometry>
        </mxCell>
        <mxCell id="LEkP-3PZfSbXPU-rr5hg-14" value="+ name: String&#xa;+ phone: String&#xa;+ email: String&#xa;" style="text;strokeColor=none;fillColor=none;align=left;verticalAlign=top;spacingLeft=4;spacingRight=4;overflow=hidden;rotatable=0;points=[[0,0.5],[1,0.5]];portConstraint=eastwest;" parent="LEkP-3PZfSbXPU-rr5hg-13" vertex="1">
          <mxGeometry y="26" width="170" height="64" as="geometry" />
        </mxCell>
        <mxCell id="LEkP-3PZfSbXPU-rr5hg-15" value="" style="line;strokeWidth=1;fillColor=none;align=left;verticalAlign=middle;spacingTop=-1;spacingLeft=3;spacingRight=3;rotatable=0;labelPosition=right;points=[];portConstraint=eastwest;" parent="LEkP-3PZfSbXPU-rr5hg-13" vertex="1">
          <mxGeometry y="90" width="170" height="8" as="geometry" />
        </mxCell>
        <mxCell id="LEkP-3PZfSbXPU-rr5hg-16" value="+ getContactDetails(): String&#xa;&#xa;+ updateContactDetails&#xa;(contactDetail: String): void&#xa;" style="text;strokeColor=none;fillColor=none;align=left;verticalAlign=top;spacingLeft=4;spacingRight=4;overflow=hidden;rotatable=0;points=[[0,0.5],[1,0.5]];portConstraint=eastwest;" parent="LEkP-3PZfSbXPU-rr5hg-13" vertex="1">
          <mxGeometry y="98" width="170" height="82" as="geometry" />
        </mxCell>
        <mxCell id="LEkP-3PZfSbXPU-rr5hg-22" value="" style="endArrow=diamondThin;endFill=1;endSize=24;html=1;" parent="1" edge="1">
          <mxGeometry width="160" relative="1" as="geometry">
            <mxPoint x="660" y="-70" as="sourcePoint" />
            <mxPoint x="540" y="-70" as="targetPoint" />
            <Array as="points" />
          </mxGeometry>
        </mxCell>
        <mxCell id="LEkP-3PZfSbXPU-rr5hg-23" value="Product    " style="swimlane;fontStyle=1;align=center;verticalAlign=top;childLayout=stackLayout;horizontal=1;startSize=26;horizontalStack=0;resizeParent=1;resizeParentMax=0;resizeLast=0;collapsible=1;marginBottom=0;" parent="1" vertex="1">
          <mxGeometry x="-100" y="110" width="180" height="210" as="geometry" />
        </mxCell>
        <mxCell id="LEkP-3PZfSbXPU-rr5hg-24" value="+ id: int&#xa;+ name: String&#xa;+ category: String&#xa;+ salesPrice: float&#xa;+ cost: float&#xa;+ quantity: int&#xa;+ active: boolean&#xa;&#xa;" style="text;strokeColor=none;fillColor=none;align=left;verticalAlign=top;spacingLeft=4;spacingRight=4;overflow=hidden;rotatable=0;points=[[0,0.5],[1,0.5]];portConstraint=eastwest;" parent="LEkP-3PZfSbXPU-rr5hg-23" vertex="1">
          <mxGeometry y="26" width="180" height="104" as="geometry" />
        </mxCell>
        <mxCell id="LEkP-3PZfSbXPU-rr5hg-25" value="" style="line;strokeWidth=1;fillColor=none;align=left;verticalAlign=middle;spacingTop=-1;spacingLeft=3;spacingRight=3;rotatable=0;labelPosition=right;points=[];portConstraint=eastwest;" parent="LEkP-3PZfSbXPU-rr5hg-23" vertex="1">
          <mxGeometry y="130" width="180" height="8" as="geometry" />
        </mxCell>
        <mxCell id="LEkP-3PZfSbXPU-rr5hg-26" value="+ getProfitOrLoss(): float&#xa;+ deactivate(): void&#xa;+ activate(): void&#xa;+ isBelowThreshold(): boolean" style="text;strokeColor=none;fillColor=none;align=left;verticalAlign=top;spacingLeft=4;spacingRight=4;overflow=hidden;rotatable=0;points=[[0,0.5],[1,0.5]];portConstraint=eastwest;" parent="LEkP-3PZfSbXPU-rr5hg-23" vertex="1">
          <mxGeometry y="138" width="180" height="72" as="geometry" />
        </mxCell>
        <mxCell id="LEkP-3PZfSbXPU-rr5hg-27" value="Order" style="swimlane;fontStyle=1;align=center;verticalAlign=top;childLayout=stackLayout;horizontal=1;startSize=26;horizontalStack=0;resizeParent=1;resizeParentMax=0;resizeLast=0;collapsible=1;marginBottom=0;" parent="1" vertex="1">
          <mxGeometry x="160" y="120" width="170" height="160" as="geometry" />
        </mxCell>
        <mxCell id="LEkP-3PZfSbXPU-rr5hg-28" value="+ id: int&#xa;+ vendor: Vendor&#xa;+ date: String&#xa;+ orderedProduct: Product&#xa;+ orderedQuantity: int&#xa;+ amountPaid: float" style="text;strokeColor=none;fillColor=none;align=left;verticalAlign=top;spacingLeft=4;spacingRight=4;overflow=hidden;rotatable=0;points=[[0,0.5],[1,0.5]];portConstraint=eastwest;" parent="LEkP-3PZfSbXPU-rr5hg-27" vertex="1">
          <mxGeometry y="26" width="170" height="94" as="geometry" />
        </mxCell>
        <mxCell id="LEkP-3PZfSbXPU-rr5hg-29" value="" style="line;strokeWidth=1;fillColor=none;align=left;verticalAlign=middle;spacingTop=-1;spacingLeft=3;spacingRight=3;rotatable=0;labelPosition=right;points=[];portConstraint=eastwest;" parent="LEkP-3PZfSbXPU-rr5hg-27" vertex="1">
          <mxGeometry y="120" width="170" height="8" as="geometry" />
        </mxCell>
        <mxCell id="LEkP-3PZfSbXPU-rr5hg-30" value="+ updateVendorCredit(): void" style="text;strokeColor=none;fillColor=none;align=left;verticalAlign=top;spacingLeft=4;spacingRight=4;overflow=hidden;rotatable=0;points=[[0,0.5],[1,0.5]];portConstraint=eastwest;" parent="LEkP-3PZfSbXPU-rr5hg-27" vertex="1">
          <mxGeometry y="128" width="170" height="32" as="geometry" />
        </mxCell>
        <mxCell id="LEkP-3PZfSbXPU-rr5hg-32" value="Vendor&#xa;" style="swimlane;fontStyle=1;align=center;verticalAlign=top;childLayout=stackLayout;horizontal=1;startSize=30;horizontalStack=0;resizeParent=1;resizeParentMax=0;resizeLast=0;collapsible=1;marginBottom=0;" parent="1" vertex="1">
          <mxGeometry x="380" y="170" width="260" height="180" as="geometry" />
        </mxCell>
        <mxCell id="LEkP-3PZfSbXPU-rr5hg-33" value="+ vendorName: String&#xa;+ credit: float&#xa;+ products: Product(0....100)&#xa;+ orders: Order(0...100)&#xa;" style="text;strokeColor=none;fillColor=none;align=left;verticalAlign=top;spacingLeft=4;spacingRight=4;overflow=hidden;rotatable=0;points=[[0,0.5],[1,0.5]];portConstraint=eastwest;" parent="LEkP-3PZfSbXPU-rr5hg-32" vertex="1">
          <mxGeometry y="30" width="260" height="70" as="geometry" />
        </mxCell>
        <mxCell id="LEkP-3PZfSbXPU-rr5hg-34" value="" style="line;strokeWidth=1;fillColor=none;align=left;verticalAlign=middle;spacingTop=-1;spacingLeft=3;spacingRight=3;rotatable=0;labelPosition=right;points=[];portConstraint=eastwest;" parent="LEkP-3PZfSbXPU-rr5hg-32" vertex="1">
          <mxGeometry y="100" width="260" height="8" as="geometry" />
        </mxCell>
        <mxCell id="LEkP-3PZfSbXPU-rr5hg-35" value="+ checkDue(): float&#xa;+ fetchProductById(id:int): Product&#xa;+ fetchProductByName(name: String): Product&#xa;&#xa;" style="text;strokeColor=none;fillColor=none;align=left;verticalAlign=top;spacingLeft=4;spacingRight=4;overflow=hidden;rotatable=0;points=[[0,0.5],[1,0.5]];portConstraint=eastwest;" parent="LEkP-3PZfSbXPU-rr5hg-32" vertex="1">
          <mxGeometry y="108" width="260" height="72" as="geometry" />
        </mxCell>
        <mxCell id="LEkP-3PZfSbXPU-rr5hg-36" value="Customer" style="swimlane;fontStyle=1;align=center;verticalAlign=top;childLayout=stackLayout;horizontal=1;startSize=50;horizontalStack=0;resizeParent=1;resizeParentMax=0;resizeLast=0;collapsible=1;marginBottom=0;" parent="1" vertex="1">
          <mxGeometry x="680" y="170" width="160" height="180" as="geometry" />
        </mxCell>
        <mxCell id="LEkP-3PZfSbXPU-rr5hg-37" value="+ transactionCount: int" style="text;strokeColor=none;fillColor=none;align=left;verticalAlign=top;spacingLeft=4;spacingRight=4;overflow=hidden;rotatable=0;points=[[0,0.5],[1,0.5]];portConstraint=eastwest;" parent="LEkP-3PZfSbXPU-rr5hg-36" vertex="1">
          <mxGeometry y="50" width="160" height="40" as="geometry" />
        </mxCell>
        <mxCell id="LEkP-3PZfSbXPU-rr5hg-38" value="" style="line;strokeWidth=1;fillColor=none;align=left;verticalAlign=middle;spacingTop=-1;spacingLeft=3;spacingRight=3;rotatable=0;labelPosition=right;points=[];portConstraint=eastwest;" parent="LEkP-3PZfSbXPU-rr5hg-36" vertex="1">
          <mxGeometry y="90" width="160" height="8" as="geometry" />
        </mxCell>
        <mxCell id="LEkP-3PZfSbXPU-rr5hg-39" value="+ getTransactionCount(): int&#xa;+ calculateDiscount: float&#xa;" style="text;strokeColor=none;fillColor=none;align=left;verticalAlign=top;spacingLeft=4;spacingRight=4;overflow=hidden;rotatable=0;points=[[0,0.5],[1,0.5]];portConstraint=eastwest;" parent="LEkP-3PZfSbXPU-rr5hg-36" vertex="1">
          <mxGeometry y="98" width="160" height="82" as="geometry" />
        </mxCell>
        <mxCell id="LEkP-3PZfSbXPU-rr5hg-40" value="Extends" style="endArrow=block;endSize=16;endFill=0;html=1;entryX=0.692;entryY=1.01;entryDx=0;entryDy=0;entryPerimeter=0;exitX=0.466;exitY=-0.019;exitDx=0;exitDy=0;exitPerimeter=0;" parent="1" source="LEkP-3PZfSbXPU-rr5hg-32" target="LEkP-3PZfSbXPU-rr5hg-10" edge="1">
          <mxGeometry width="160" relative="1" as="geometry">
            <mxPoint x="500" y="210" as="sourcePoint" />
            <mxPoint x="610" y="70" as="targetPoint" />
          </mxGeometry>
        </mxCell>
        <mxCell id="LEkP-3PZfSbXPU-rr5hg-42" value="Extends" style="endArrow=block;endSize=16;endFill=0;html=1;entryX=0.903;entryY=0.997;entryDx=0;entryDy=0;entryPerimeter=0;exitX=0.303;exitY=-0.01;exitDx=0;exitDy=0;exitPerimeter=0;" parent="1" source="LEkP-3PZfSbXPU-rr5hg-36" target="LEkP-3PZfSbXPU-rr5hg-10" edge="1">
          <mxGeometry width="160" relative="1" as="geometry">
            <mxPoint x="706.5187265733691" y="289.38" as="sourcePoint" />
            <mxPoint x="610" y="70" as="targetPoint" />
          </mxGeometry>
        </mxCell>
        <mxCell id="LEkP-3PZfSbXPU-rr5hg-43" value="" style="endArrow=diamondThin;endFill=0;endSize=24;html=1;" parent="1" edge="1">
          <mxGeometry width="160" relative="1" as="geometry">
            <mxPoint x="80" y="180" as="sourcePoint" />
            <mxPoint x="160" y="180" as="targetPoint" />
            <Array as="points">
              <mxPoint x="90" y="180" />
              <mxPoint x="100" y="180" />
            </Array>
          </mxGeometry>
        </mxCell>
        <mxCell id="LEkP-3PZfSbXPU-rr5hg-44" value="" style="endArrow=diamondThin;endFill=0;endSize=24;html=1;" parent="1" target="LEkP-3PZfSbXPU-rr5hg-35" edge="1">
          <mxGeometry width="160" relative="1" as="geometry">
            <mxPoint x="80" y="309.5" as="sourcePoint" />
            <mxPoint x="160" y="309.5" as="targetPoint" />
          </mxGeometry>
        </mxCell>
        <mxCell id="LEkP-3PZfSbXPU-rr5hg-52" value="" style="endArrow=none;html=1;edgeStyle=orthogonalEdgeStyle;exitX=1;exitY=0.785;exitDx=0;exitDy=0;exitPerimeter=0;" parent="1" source="LEkP-3PZfSbXPU-rr5hg-28" edge="1">
          <mxGeometry relative="1" as="geometry">
            <mxPoint x="340" y="220" as="sourcePoint" />
            <mxPoint x="380" y="220" as="targetPoint" />
          </mxGeometry>
        </mxCell>
        <mxCell id="LEkP-3PZfSbXPU-rr5hg-58" value="1" style="text;html=1;align=center;verticalAlign=middle;resizable=0;points=[];autosize=1;strokeColor=none;fillColor=none;" parent="1" vertex="1">
          <mxGeometry x="290" y="-90" width="20" height="20" as="geometry" />
        </mxCell>
        <mxCell id="LEkP-3PZfSbXPU-rr5hg-59" value="1" style="text;html=1;align=center;verticalAlign=middle;resizable=0;points=[];autosize=1;strokeColor=none;fillColor=none;" parent="1" vertex="1">
          <mxGeometry x="360" y="-90" width="20" height="20" as="geometry" />
        </mxCell>
        <mxCell id="LEkP-3PZfSbXPU-rr5hg-61" value="1" style="text;html=1;align=center;verticalAlign=middle;resizable=0;points=[];autosize=1;strokeColor=none;fillColor=none;" parent="1" vertex="1">
          <mxGeometry x="540" y="-100" width="20" height="20" as="geometry" />
        </mxCell>
        <mxCell id="LEkP-3PZfSbXPU-rr5hg-62" value="1" style="text;html=1;align=center;verticalAlign=middle;resizable=0;points=[];autosize=1;strokeColor=none;fillColor=none;" parent="1" vertex="1">
          <mxGeometry x="640" y="-100" width="20" height="20" as="geometry" />
        </mxCell>
        <mxCell id="LEkP-3PZfSbXPU-rr5hg-63" value="1" style="text;html=1;align=center;verticalAlign=middle;resizable=0;points=[];autosize=1;strokeColor=none;fillColor=none;" parent="1" vertex="1">
          <mxGeometry x="80" y="150" width="20" height="20" as="geometry" />
        </mxCell>
        <mxCell id="LEkP-3PZfSbXPU-rr5hg-64" value="1" style="text;html=1;align=center;verticalAlign=middle;resizable=0;points=[];autosize=1;strokeColor=none;fillColor=none;" parent="1" vertex="1">
          <mxGeometry x="140" y="150" width="20" height="20" as="geometry" />
        </mxCell>
        <mxCell id="LEkP-3PZfSbXPU-rr5hg-65" value="*" style="text;html=1;align=center;verticalAlign=middle;resizable=0;points=[];autosize=1;strokeColor=none;fillColor=none;" parent="1" vertex="1">
          <mxGeometry x="330" y="200" width="20" height="20" as="geometry" />
        </mxCell>
        <mxCell id="LEkP-3PZfSbXPU-rr5hg-66" value="1" style="text;html=1;align=center;verticalAlign=middle;resizable=0;points=[];autosize=1;strokeColor=none;fillColor=none;" parent="1" vertex="1">
          <mxGeometry x="360" y="200" width="20" height="20" as="geometry" />
        </mxCell>
        <mxCell id="LEkP-3PZfSbXPU-rr5hg-67" value="*" style="text;html=1;align=center;verticalAlign=middle;resizable=0;points=[];autosize=1;strokeColor=none;fillColor=none;" parent="1" vertex="1">
          <mxGeometry x="80" y="280" width="20" height="20" as="geometry" />
        </mxCell>
        <mxCell id="LEkP-3PZfSbXPU-rr5hg-68" value="*" style="text;html=1;align=center;verticalAlign=middle;resizable=0;points=[];autosize=1;strokeColor=none;fillColor=none;" parent="1" vertex="1">
          <mxGeometry x="360" y="280" width="20" height="20" as="geometry" />
        </mxCell>
      </root>
    </mxGraphModel>
  </diagram>
</mxfile>
